<svg id="Capa_1" enable-background="new 0 0 512 512" height="512" viewBox="0 0 512 512" width="512" xmlns="http://www.w3.org/2000/svg"><g><path d="m501 256c0 135.31-109.69 245-245 245s-245-109.69-245-245 109.69-245 245-245 245 109.69 245 245z" fill="#533672"/><path d="m245.778 267.306-14.145-75.637c-.865-4.625 4.555-7.775 8.146-4.735l58.725 49.723c2.261 1.915 5.682 1.454 7.356-.991l43.481-63.486c2.659-3.882 8.719-2.277 9.108 2.412l6.365 76.685c.245 2.953 2.99 5.046 5.902 4.501l75.637-14.145c4.625-.865 7.775 4.555 4.735 8.146l-49.723 58.725c-1.915 2.261-1.454 5.682.991 7.356l63.486 43.481c3.882 2.659 2.277 8.719-2.412 9.108l-76.685 6.365c-2.953.245-5.046 2.99-4.501 5.902l14.145 75.637c.865 4.625-4.555 7.775-8.146 4.735l-58.725-49.723c-2.261-1.915-5.682-1.454-7.356.991l-43.481 63.486c-2.659 3.882-8.719 2.277-9.108-2.412l-6.365-76.685c-.245-2.953-2.99-5.046-5.902-4.501l-75.637 14.145c-4.625.865-7.775-4.555-4.735-8.146l49.723-58.725c1.915-2.261 1.454-5.682-.991-7.356l-63.486-43.481c-3.882-2.659-2.277-8.719 2.412-9.108l76.685-6.365c2.953-.245 5.046-2.99 4.501-5.902z" fill="#9773bd"/><path d="m101.539 114.199-7.199-59.705c-.44-3.651 3.946-5.833 6.593-3.28l43.279 41.753c1.666 1.608 4.358 1.422 5.787-.4l37.127-47.308c2.27-2.893 6.915-1.334 6.981 2.342l1.079 60.127c.042 2.315 2.076 4.087 4.375 3.809l59.704-7.199c3.651-.44 5.833 3.946 3.28 6.593l-41.753 43.279c-1.608 1.666-1.422 4.358.4 5.787l47.308 37.127c2.893 2.27 1.334 6.915-2.342 6.981l-60.127 1.079c-2.315.042-4.087 2.076-3.809 4.375l7.199 59.704c.44 3.651-3.946 5.833-6.593 3.28l-43.279-41.753c-1.666-1.608-4.358-1.422-5.787.4l-37.127 47.308c-2.27 2.893-6.915 1.334-6.981-2.342l-1.079-60.127c-.042-2.315-2.076-4.087-4.375-3.809l-59.704 7.199c-3.651.44-5.833-3.946-3.28-6.593l41.753-43.279c1.608-1.666 1.422-4.358-.4-5.787l-47.309-37.127c-2.893-2.27-1.334-6.915 2.342-6.981l60.127-1.079c2.316-.041 4.087-2.076 3.81-4.374z" fill="#3f97a4"/><path d="m504.002 116.663c.429.255.857.511 1.284.767 4.523 2.71 7.106 7.763 6.664 13.017-1.111 13.22-3.408 26.525-6.962 39.79-26.525 98.991-114.854 164.917-212.348 167.387-83.197-50.885-126.73-152.143-100.205-251.135 3.554-13.265 8.219-25.936 13.866-37.94 2.244-4.771 7.008-7.855 12.28-7.941.498-.008.997-.016 1.496-.022 99.897-1.386 198.104 24.929 283.925 76.077z" fill="#e5554e"/><path d="m276.944 255.033c-40.777-53.699-57.177-125.009-38.374-195.18 1.741-6.496 3.748-12.85 6.006-19.052 91.398 2.875 180.632 28.902 259.426 75.862.429.256.857.512 1.285.768 4.518 2.708 7.106 7.75 6.665 12.999-1.111 13.226-3.408 26.537-6.964 39.808-13.658 50.973-43.704 93.179-82.95 122.468-.26.112-.521.223-.781.334-51.067 21.731-110.75 6.193-144.313-38.007z" fill="#f87b67"/><path d="m323.269 130.318c3.819 6.614 1.553 15.071-5.061 18.889-3.307 1.909-7.075 2.298-10.493 1.382s-6.487-3.136-8.396-6.443c-6.354-11.006-20.477-14.79-31.483-8.436-6.613 3.818-15.071 1.552-18.889-5.061-3.819-6.614-1.553-15.071 5.061-18.889 24.211-13.98 55.283-5.654 69.261 18.558zm115.76 31.018c-13.978-24.213-45.05-32.538-69.261-18.559-6.614 3.818-8.88 12.276-5.061 18.889 3.818 6.613 12.276 8.88 18.889 5.061 11.006-6.354 25.128-2.57 31.483 8.436 1.909 3.307 4.978 5.527 8.396 6.443s7.186.528 10.493-1.382c6.614-3.817 8.88-12.274 5.061-18.888z" fill="#533672"/><path d="m430.202 196.02c8.828 13.04 12.259 28.616 8.216 43.705-.168.629-.349 1.252-.54 1.869-6.224 20.053-41.747 10.534-37.111-9.944.143-.63.298-1.26.467-1.888 4.043-15.09 14.802-26.863 28.968-33.742z" fill="#fccfc9"/><path d="m437.201 243.409c-7.756 17.623-40.923 8.071-36.434-11.759.143-.63.298-1.26.467-1.888 3.968-14.811 14.407-26.426 28.187-33.355-4.973 6.145-8.7 13.256-10.818 21.161-.193.721-.371 1.442-.535 2.164-2.87 12.678 7.69 21.691 19.133 23.677z" fill="#fbb3a8"/><path d="m328.25 204.727c30.134 8.074 55.3 27.365 70.861 54.318 3.694 6.396 4.675 13.85 2.763 20.986s-6.489 13.1-12.887 16.793c-13.204 7.624-30.153 3.083-37.777-10.123-16.919-29.302-54.525-39.38-83.831-22.461-13.205 7.622-30.154 3.083-37.778-10.124-3.694-6.396-4.675-13.85-2.763-20.986s6.489-13.1 12.887-16.793c26.951-15.561 58.391-19.685 88.525-11.61z" fill="#fccfc9"/><path d="m378.618 278.861c-3.307 1.908-7.535.775-9.446-2.531-10.975-19.011-28.68-32.605-49.852-38.278s-43.302-2.752-62.312 8.224c-3.307 1.908-7.535.775-9.446-2.531-1.909-3.308-.776-7.536 2.531-9.446 22.21-12.823 48.066-16.234 72.805-9.605 24.74 6.629 45.426 22.511 58.249 44.721 1.91 3.309.778 7.536-2.529 9.446z" fill="#fa9084"/><path d="m291.922 174.265c.499.007.997.014 1.495.022 5.271.085 10.035 3.17 12.28 7.941 5.647 12.004 10.312 24.676 13.866 37.94 26.525 98.991-17.008 200.25-100.205 251.135-97.494-2.469-185.823-68.395-212.347-167.387-3.554-13.265-5.851-26.571-6.962-39.79-.442-5.254 2.142-10.307 6.664-13.017.427-.256.855-.512 1.284-.767 85.821-51.148 184.028-77.462 283.925-76.077z" fill="#e9cc5a"/><path d="m164.469 407.626c-62.163-26.117-112.021-79.673-130.823-149.843-1.741-6.496-3.179-13.002-4.325-19.503 80.59-43.209 170.883-65.286 262.601-64.014.499.007.998.014 1.496.023 5.267.086 10.029 3.158 12.271 7.925 5.651 12.009 10.317 24.686 13.873 37.956 13.658 50.973 8.741 102.547-10.603 147.535-.169.227-.339.454-.509.68-33.359 44.352-92.814 60.738-143.981 39.241z" fill="#fff36c"/><path d="m142.231 276.457c6.614 3.818 8.88 12.276 5.061 18.889-1.909 3.307-4.978 5.527-8.396 6.443s-7.186.527-10.493-1.382c-11.006-6.354-25.128-2.57-31.483 8.436-3.818 6.613-12.276 8.88-18.889 5.061-6.614-3.818-8.88-12.276-5.061-18.889 13.977-24.212 45.049-32.537 69.261-18.558zm115.76-31.017c-6.613-3.818-15.071-1.552-18.889 5.061-6.354 11.006-20.477 14.79-31.483 8.436-6.613-3.818-15.071-1.552-18.889 5.061-3.819 6.614-1.553 15.071 5.061 18.889 12.106 6.99 25.927 8.403 38.468 5.043s23.804-11.495 30.793-23.601c3.819-6.614 1.553-15.071-5.061-18.889z" fill="#533672"/><path d="m277.003 336.364c1.912 7.136.93 14.589-2.764 20.987-15.561 26.952-40.726 46.243-70.86 54.317s-61.574 3.951-88.527-11.611c-6.397-3.693-10.974-9.657-12.886-16.793s-.93-14.589 2.764-20.987c7.623-13.204 24.572-17.747 37.778-10.122 29.303 16.917 66.91 6.841 83.83-22.463 7.625-13.203 24.573-17.747 37.779-10.122 6.397 3.693 10.974 9.658 12.886 16.794z" fill="#fffac1"/><path d="m256.277 346.979c-12.823 22.21-33.509 38.092-58.249 44.721s-50.596 3.218-72.805-9.605c-3.307-1.91-4.44-6.138-2.531-9.446 1.91-3.306 6.138-4.439 9.446-2.531 19.01 10.976 41.14 13.897 62.312 8.224s38.876-19.267 49.852-38.278c1.91-3.306 6.138-4.439 9.446-2.531 3.305 1.91 4.438 6.138 2.529 9.446z" fill="#f1de96"/><path d="m373.037 364.21-14.156-4.146c-1.154-.338-2.226.734-1.888 1.888l4.146 14.156c.082.279.082.576 0 .855l-4.146 14.156c-.338 1.154.734 2.226 1.888 1.888l14.156-4.146c.279-.082.576-.082.855 0l14.156 4.146c1.154.338 2.226-.734 1.888-1.888l-4.146-14.156c-.082-.279-.082-.576 0-.855l4.146-14.156c.338-1.154-.734-2.226-1.888-1.888l-14.156 4.146c-.279.081-.576.081-.855 0z" fill="#fff36c"/><path d="m138.829 132.067 18.606-5.45c1.517-.444 2.926.964 2.482 2.482l-5.45 18.606c-.108.367-.108.757 0 1.124l5.45 18.606c.444 1.517-.964 2.926-2.482 2.482l-18.606-5.45c-.367-.108-.757-.108-1.124 0l-18.606 5.45c-1.517.444-2.926-.964-2.482-2.482l5.45-18.606c.108-.367.108-.757 0-1.124l-5.45-18.606c-.444-1.517.964-2.926 2.482-2.482l18.606 5.45c.367.107.757.107 1.124 0zm297.003 169.239-7.543 20.386c-.203.547-.634.979-1.182 1.182l-20.386 7.543c-1.741.644-1.741 3.107 0 3.751l20.386 7.543c.547.203.979.634 1.182 1.182l7.543 20.386c.644 1.741 3.107 1.741 3.751 0l7.543-20.386c.203-.547.634-.979 1.182-1.182l20.386-7.543c1.741-.644 1.741-3.107 0-3.751l-20.386-7.543c-.547-.203-.979-.634-1.182-1.182l-7.543-20.386c-.644-1.741-3.107-1.741-3.751 0z" fill="#fff5f5"/></g></svg>